<svg xmlns="http://www.w3.org/2000/svg" viewBox="0 0 1460 780"><rect x="0" y="0" width="1460" height="780" fill="#ffffff" stroke="#d5d8dd"/><text x="40" y="52" font-size="26" fill="#1f2329" font-weight="bold">如果历史拐了个弯·反事实推演</text><text x="40" y="86" font-size="15" fill="#646a73">GSB 判定：a 优 · 分数 1–5 · 严格口径（顶级锚定+AI味/PPT味计扣）</text><line x1="42" y1="116" x2="70" y2="116" stroke="#2a78d6" stroke-width="3"/><text x="78" y="122" font-size="15" fill="#1f2329">a</text><line x1="104" y1="116" x2="132" y2="116" stroke="#c98500" stroke-width="3"/><text x="140" y="122" font-size="15" fill="#1f2329">b</text><polygon points="330.0,380.0 373.3,405.0 373.3,455.0 330.0,480.0 286.7,455.0 286.7,405.0" fill="none" stroke="#d5d8dd" stroke-width="1"/><polygon points="330.0,330.0 416.6,380.0 416.6,480.0 330.0,530.0 243.4,480.0 243.4,380.0" fill="none" stroke="#d5d8dd" stroke-width="1"/><polygon points="330.0,280.0 459.9,355.0 459.9,505.0 330.0,580.0 200.1,505.0 200.1,355.0" fill="none" stroke="#d5d8dd" stroke-width="1"/><polygon points="330.0,230.0 503.2,330.0 503.2,530.0 330.0,630.0 156.8,530.0 156.8,330.0" fill="none" stroke="#d5d8dd" stroke-width="1"/><polygon points="330.0,180.0 546.5,305.0 546.5,555.0 330.0,680.0 113.5,555.0 113.5,305.0" fill="none" stroke="#d5d8dd" stroke-width="1"/><line x1="330" y1="430" x2="330.0" y2="180.0" stroke="#d5d8dd" stroke-width="1"/><line x1="330" y1="430" x2="546.5" y2="305.0" stroke="#d5d8dd" stroke-width="1"/><line x1="330" y1="430" x2="546.5" y2="555.0" stroke="#d5d8dd" stroke-width="1"/><line x1="330" y1="430" x2="330.0" y2="680.0" stroke="#d5d8dd" stroke-width="1"/><line x1="330" y1="430" x2="113.5" y2="555.0" stroke="#d5d8dd" stroke-width="1"/><line x1="330" y1="430" x2="113.5" y2="305.0" stroke="#d5d8dd" stroke-width="1"/><polygon points="330.0,230.0 477.2,345.0 481.6,517.5 330.0,630.0 210.9,498.8 171.1,338.2" fill="#c98500" fill-opacity="0.18" stroke="#c98500" stroke-width="2.5"/><circle cx="330.0" cy="230.0" r="4" fill="#c98500"/><circle cx="477.2" cy="345.0" r="4" fill="#c98500"/><circle cx="481.6" cy="517.5" r="4" fill="#c98500"/><circle cx="330.0" cy="630.0" r="4" fill="#c98500"/><circle cx="210.9" cy="498.8" r="4" fill="#c98500"/><circle cx="171.1" cy="338.2" r="4" fill="#c98500"/><polygon points="330.0,180.0 529.2,315.0 517.5,538.2 330.0,680.0 113.5,555.0 113.5,305.0" fill="#2a78d6" fill-opacity="0.18" stroke="#2a78d6" stroke-width="2.5"/><circle cx="330.0" cy="180.0" r="4" fill="#2a78d6"/><circle cx="529.2" cy="315.0" r="4" fill="#2a78d6"/><circle cx="517.5" cy="538.2" r="4" fill="#2a78d6"/><circle cx="330.0" cy="680.0" r="4" fill="#2a78d6"/><circle cx="113.5" cy="555.0" r="4" fill="#2a78d6"/><circle cx="113.5" cy="305.0" r="4" fill="#2a78d6"/><text x="330" y="160" font-size="17" fill="#1f2329" text-anchor="middle" font-weight="bold">L1 任务</text><text x="576" y="298" font-size="17" fill="#1f2329" text-anchor="start" font-weight="bold">L2 视觉</text><text x="576" y="574" font-size="17" fill="#1f2329" text-anchor="start" font-weight="bold">L3 时序</text><text x="330" y="712" font-size="17" fill="#1f2329" text-anchor="middle" font-weight="bold">L4 音频</text><text x="84" y="574" font-size="17" fill="#1f2329" text-anchor="end" font-weight="bold">L5 叙事</text><text x="84" y="298" font-size="17" fill="#1f2329" text-anchor="end" font-weight="bold">L6 商业</text><rect x="700" y="130" width="330" height="340" fill="none" stroke="#d5d8dd" stroke-width="1.5"/><line x1="700" y1="164" x2="1030" y2="164" stroke="#d5d8dd" stroke-width="1"/><line x1="700" y1="198" x2="1030" y2="198" stroke="#d5d8dd" stroke-width="1"/><line x1="700" y1="232" x2="1030" y2="232" stroke="#d5d8dd" stroke-width="1"/><line x1="700" y1="266" x2="1030" y2="266" stroke="#d5d8dd" stroke-width="1"/><line x1="700" y1="300" x2="1030" y2="300" stroke="#d5d8dd" stroke-width="1"/><line x1="700" y1="334" x2="1030" y2="334" stroke="#d5d8dd" stroke-width="1"/><line x1="700" y1="368" x2="1030" y2="368" stroke="#d5d8dd" stroke-width="1"/><line x1="700" y1="402" x2="1030" y2="402" stroke="#d5d8dd" stroke-width="1"/><line x1="700" y1="436" x2="1030" y2="436" stroke="#d5d8dd" stroke-width="1"/><line x1="845" y1="130" x2="845" y2="470" stroke="#d5d8dd" stroke-width="1"/><line x1="937" y1="130" x2="937" y2="470" stroke="#d5d8dd" stroke-width="1"/><text x="772" y="153" font-size="15" fill="#1f2329" text-anchor="middle"> </text><text x="891" y="153" font-size="16" fill="#2a78d6" text-anchor="middle" font-weight="bold">a</text><text x="983" y="153" font-size="16" fill="#c98500" text-anchor="middle" font-weight="bold">b</text><text x="712" y="187" font-size="15" fill="#1f2329">L1 任务</text><text x="891" y="187" font-size="15" fill="#1f2329" text-anchor="middle">5.0</text><text x="983" y="187" font-size="15" fill="#1f2329" text-anchor="middle">4.0</text><text x="712" y="221" font-size="15" fill="#1f2329">L2 视觉</text><text x="891" y="221" font-size="15" fill="#1f2329" text-anchor="middle">4.6</text><text x="983" y="221" font-size="15" fill="#c0392b" text-anchor="middle" font-weight="bold">3.4</text><text x="712" y="255" font-size="15" fill="#1f2329">L3 时序</text><text x="891" y="255" font-size="15" fill="#1f2329" text-anchor="middle">4.3</text><text x="983" y="255" font-size="15" fill="#c0392b" text-anchor="middle" font-weight="bold">3.5</text><text x="712" y="289" font-size="15" fill="#1f2329">L4 音频</text><text x="891" y="289" font-size="15" fill="#1f2329" text-anchor="middle">5.0</text><text x="983" y="289" font-size="15" fill="#1f2329" text-anchor="middle">4.0</text><text x="712" y="323" font-size="15" fill="#1f2329">L5 叙事</text><text x="891" y="323" font-size="15" fill="#1f2329" text-anchor="middle">5.0</text><text x="983" y="323" font-size="15" fill="#c0392b" text-anchor="middle" font-weight="bold">2.8</text><text x="712" y="357" font-size="15" fill="#1f2329">L6 商业</text><text x="891" y="357" font-size="15" fill="#1f2329" text-anchor="middle">5.0</text><text x="983" y="357" font-size="15" fill="#c0392b" text-anchor="middle" font-weight="bold">3.7</text><text x="712" y="391" font-size="15" fill="#1f2329">均分</text><text x="891" y="391" font-size="15" fill="#1f2329" text-anchor="middle">4.82</text><text x="983" y="391" font-size="15" fill="#c0392b" text-anchor="middle" font-weight="bold">3.55</text><text x="712" y="425" font-size="15" fill="#1f2329">档位</text><text x="891" y="425" font-size="15" fill="#1f2329" text-anchor="middle">优秀</text><text x="983" y="425" font-size="15" fill="#1f2329" text-anchor="middle">及格</text><text x="712" y="459" font-size="15" fill="#1f2329">Gate</text><text x="891" y="459" font-size="15" fill="#1f2329" text-anchor="middle">通过</text><text x="983" y="459" font-size="15" fill="#1f2329" text-anchor="middle">通过</text><text x="1090" y="160" font-size="16" fill="#2a78d6" font-weight="bold">a 诊断</text><text x="1090" y="186" font-size="13.5" fill="#646a73">美术风格极其统一，史实与反事实推演</text><text x="1090" y="207" font-size="13.5" fill="#646a73">逻辑清晰且排版讲究，是一部高质量的</text><text x="1090" y="228" font-size="13.5" fill="#646a73">泛知识解说视频。</text><text x="1090" y="267" font-size="16" fill="#c98500" font-weight="bold">b 诊断</text><text x="1090" y="293" font-size="13.5" fill="#646a73">视频推演结构完整，但存在严重的AI</text><text x="1090" y="314" font-size="13.5" fill="#646a73">模板PPT感，信息密度偏低且结尾收</text><text x="1090" y="335" font-size="13.5" fill="#646a73">尾过于突兀。</text></svg>