<svg xmlns="http://www.w3.org/2000/svg" viewBox="0 0 1460 780"><rect x="0" y="0" width="1460" height="780" fill="#ffffff" stroke="#d5d8dd"/><text x="40" y="52" font-size="26" fill="#1f2329" font-weight="bold">总览：gpt5.6-sol vs gpt5.5（6 题盲评揭盲 · 严格口径）</text><text x="40" y="86" font-size="15" fill="#646a73">G/S/B(5.6 vs 5.5) = 5/1/0 · Net Lift = +83% · Decisive Win Rate = 100% · 盲评后按用户提供映射揭盲（5.6 = 电池a/商业b/隐私b/动物b/历史a/深海b）</text><line x1="42" y1="116" x2="70" y2="116" stroke="#2a78d6" stroke-width="3"/><text x="78" y="122" font-size="15" fill="#1f2329" font-weight="bold">gpt5.6-sol</text><line x1="180" y1="116" x2="208" y2="116" stroke="#c98500" stroke-width="3"/><text x="216" y="122" font-size="15" fill="#1f2329">gpt5.5</text><polygon points="330.0,380.0 373.3,405.0 373.3,455.0 330.0,480.0 286.7,455.0 286.7,405.0" fill="none" stroke="#d5d8dd" stroke-width="1"/><polygon points="330.0,330.0 416.6,380.0 416.6,480.0 330.0,530.0 243.4,480.0 243.4,380.0" fill="none" stroke="#d5d8dd" stroke-width="1"/><polygon points="330.0,280.0 459.9,355.0 459.9,505.0 330.0,580.0 200.1,505.0 200.1,355.0" fill="none" stroke="#d5d8dd" stroke-width="1"/><polygon points="330.0,230.0 503.2,330.0 503.2,530.0 330.0,630.0 156.8,530.0 156.8,330.0" fill="none" stroke="#d5d8dd" stroke-width="1"/><polygon points="330.0,180.0 546.5,305.0 546.5,555.0 330.0,680.0 113.5,555.0 113.5,305.0" fill="none" stroke="#d5d8dd" stroke-width="1"/><line x1="330" y1="430" x2="330.0" y2="180.0" stroke="#d5d8dd" stroke-width="1"/><line x1="330" y1="430" x2="546.5" y2="305.0" stroke="#d5d8dd" stroke-width="1"/><line x1="330" y1="430" x2="546.5" y2="555.0" stroke="#d5d8dd" stroke-width="1"/><line x1="330" y1="430" x2="330.0" y2="680.0" stroke="#d5d8dd" stroke-width="1"/><line x1="330" y1="430" x2="113.5" y2="555.0" stroke="#d5d8dd" stroke-width="1"/><line x1="330" y1="430" x2="113.5" y2="305.0" stroke="#d5d8dd" stroke-width="1"/><polygon points="330.0,236.0 484.2,341.0 483.3,518.5 330.0,650.0 190.1,510.8 167.2,336.0" fill="#c98500" fill-opacity="0.18" stroke="#c98500" stroke-width="2.5"/><circle cx="330.0" cy="236.0" r="4" fill="#c98500"/><circle cx="484.2" cy="341.0" r="4" fill="#c98500"/><circle cx="483.3" cy="518.5" r="4" fill="#c98500"/><circle cx="330.0" cy="650.0" r="4" fill="#c98500"/><circle cx="190.1" cy="510.8" r="4" fill="#c98500"/><circle cx="167.2" cy="336.0" r="4" fill="#c98500"/><polygon points="330.0,207.5 516.2,322.5 513.6,536.0 330.0,671.5 151.6,533.0 134.3,317.0" fill="#2a78d6" fill-opacity="0.18" stroke="#2a78d6" stroke-width="2.5"/><circle cx="330.0" cy="207.5" r="4" fill="#2a78d6"/><circle cx="516.2" cy="322.5" r="4" fill="#2a78d6"/><circle cx="513.6" cy="536.0" r="4" fill="#2a78d6"/><circle cx="330.0" cy="671.5" r="4" fill="#2a78d6"/><circle cx="151.6" cy="533.0" r="4" fill="#2a78d6"/><circle cx="134.3" cy="317.0" r="4" fill="#2a78d6"/><text x="330" y="160" font-size="17" fill="#1f2329" text-anchor="middle" font-weight="bold">L1 任务</text><text x="576" y="298" font-size="17" fill="#1f2329" text-anchor="start" font-weight="bold">L2 视觉</text><text x="576" y="574" font-size="17" fill="#1f2329" text-anchor="start" font-weight="bold">L3 时序</text><text x="330" y="712" font-size="17" fill="#1f2329" text-anchor="middle" font-weight="bold">L4 音频</text><text x="84" y="574" font-size="17" fill="#1f2329" text-anchor="end" font-weight="bold">L5 叙事</text><text x="84" y="298" font-size="17" fill="#1f2329" text-anchor="end" font-weight="bold">L6 商业</text><rect x="700" y="130" width="720" height="336" fill="none" stroke="#d5d8dd" stroke-width="1.5"/><line x1="700" y1="172" x2="1420" y2="172" stroke="#d5d8dd" stroke-width="1"/><line x1="700" y1="214" x2="1420" y2="214" stroke="#d5d8dd" stroke-width="1"/><line x1="700" y1="256" x2="1420" y2="256" stroke="#d5d8dd" stroke-width="1"/><line x1="700" y1="298" x2="1420" y2="298" stroke="#d5d8dd" stroke-width="1"/><line x1="700" y1="340" x2="1420" y2="340" stroke="#d5d8dd" stroke-width="1"/><line x1="700" y1="382" x2="1420" y2="382" stroke="#d5d8dd" stroke-width="1"/><line x1="700" y1="424" x2="1420" y2="424" stroke="#d5d8dd" stroke-width="1"/><line x1="1002" y1="130" x2="1002" y2="466" stroke="#d5d8dd" stroke-width="1"/><line x1="1175" y1="130" x2="1175" y2="466" stroke="#d5d8dd" stroke-width="1"/><line x1="1232" y1="130" x2="1232" y2="466" stroke="#d5d8dd" stroke-width="1"/><line x1="1326" y1="130" x2="1326" y2="466" stroke="#d5d8dd" stroke-width="1"/><text x="714" y="157" font-size="15" fill="#1f2329" font-weight="bold">题目</text><text x="1088" y="157" font-size="15" fill="#1f2329" text-anchor="middle" font-weight="bold">GSB</text><text x="1203" y="157" font-size="14" fill="#646a73" text-anchor="middle">5.6 侧</text><text x="1279" y="157" font-size="15" fill="#1f2329" text-anchor="middle" font-weight="bold">5.6 均分</text><text x="1373" y="157" font-size="15" fill="#1f2329" text-anchor="middle" font-weight="bold">5.5 均分</text><text x="714" y="199" font-size="15" fill="#1f2329">电池热失控·热量传播图解</text><text x="1088" y="199" font-size="15" fill="#2a78d6" text-anchor="middle">5.6 优</text><text x="1203" y="199" font-size="14" fill="#646a73" text-anchor="middle">a</text><text x="1279" y="199" font-size="15" fill="#1f2329" text-anchor="middle">4.33</text><text x="1373" y="199" font-size="15" fill="#1f2329" text-anchor="middle">3.24</text><text x="714" y="241" font-size="15" fill="#1f2329">商业结构一个概念怎么被卖爆</text><text x="1088" y="241" font-size="15" fill="#2a78d6" text-anchor="middle">5.6 优</text><text x="1203" y="241" font-size="14" fill="#646a73" text-anchor="middle">b</text><text x="1279" y="241" font-size="15" fill="#1f2329" text-anchor="middle">4.46</text><text x="1373" y="241" font-size="15" fill="#1f2329" text-anchor="middle">3.82</text><text x="714" y="283" font-size="15" fill="#1f2329">隐私条款拆解·你到底同意了什么</text><text x="1088" y="283" font-size="15" fill="#2a78d6" text-anchor="middle">5.6 优</text><text x="1203" y="283" font-size="14" fill="#646a73" text-anchor="middle">b</text><text x="1279" y="283" font-size="15" fill="#1f2329" text-anchor="middle">4.45</text><text x="1373" y="283" font-size="15" fill="#1f2329" text-anchor="middle">3.94</text><text x="714" y="325" font-size="15" fill="#1f2329">城市里的野生动物·它们怎么活下来的</text><text x="1088" y="325" font-size="15" fill="#2a78d6" text-anchor="middle">5.6 优</text><text x="1203" y="325" font-size="14" fill="#646a73" text-anchor="middle">b</text><text x="1279" y="325" font-size="15" fill="#1f2329" text-anchor="middle">4.79</text><text x="1373" y="325" font-size="15" fill="#1f2329" text-anchor="middle">4.17</text><text x="714" y="367" font-size="15" fill="#1f2329">如果历史拐了个弯·反事实推演</text><text x="1088" y="367" font-size="15" fill="#2a78d6" text-anchor="middle">5.6 优</text><text x="1203" y="367" font-size="14" fill="#646a73" text-anchor="middle">a</text><text x="1279" y="367" font-size="15" fill="#1f2329" text-anchor="middle">4.82</text><text x="1373" y="367" font-size="15" fill="#1f2329" text-anchor="middle">3.55</text><text x="714" y="409" font-size="15" fill="#1f2329">深海恐惧图解·尺度失控的瞬间</text><text x="1088" y="409" font-size="15" fill="#646a73" text-anchor="middle">无实质差异（转人工）</text><text x="1203" y="409" font-size="14" fill="#646a73" text-anchor="middle">b</text><text x="1279" y="409" font-size="15" fill="#1f2329" text-anchor="middle">3.61</text><text x="1373" y="409" font-size="15" fill="#1f2329" text-anchor="middle">3.62</text><text x="714" y="451" font-size="15" fill="#1f2329" font-weight="bold">六层平均</text><text x="1088" y="451" font-size="15" fill="#646a73" text-anchor="middle" font-weight="bold"></text><text x="1203" y="451" font-size="14" fill="#646a73" text-anchor="middle"></text><text x="1279" y="451" font-size="15" fill="#1f2329" text-anchor="middle" font-weight="bold">4.41</text><text x="1373" y="451" font-size="15" fill="#1f2329" text-anchor="middle" font-weight="bold">3.73</text><text x="700" y="510" font-size="14" fill="#646a73">gpt5.6-sol 拿下全部 5 个分出胜负的题：既赢在制作（实拍 b-roll、版画/铜版画艺术方向），</text><text x="700" y="536" font-size="14" fill="#646a73">也赢在质量控制（对手侧电池题有空面板/悬浮元素等多处确认画面 bug）。</text><text x="700" y="562" font-size="14" fill="#646a73">深海题双方各缺频道覆盖点，换位反转降级 S，转人工复核。</text></svg>